<svg width="207" height="78" viewBox="0 0 207 78" fill="none" xmlns="http://www.w3.org/2000/svg">
<path d="M73.5633 37.9232C73.5633 40.5775 75.3197 42.6215 78.3366 42.6215C81.3536 42.6215 83.11 40.5775 83.11 37.9232C83.11 35.269 81.3536 33.1855 78.3366 33.1855C75.3197 33.1855 73.5633 35.3479 73.5633 37.9232ZM73.8089 29.7934H73.8923C75.2386 27.7099 77.7666 26.7308 80.2159 26.7308C86.4583 26.7308 90.7821 31.9604 90.7821 37.9627C90.7821 43.9649 86.4977 49.0762 80.2946 49.0762C77.8894 49.0762 75.4008 48.2177 73.8089 46.3802V58.8393H66.3848V27.4269H73.8089V29.7957V29.7934Z" fill="#fff"/>
<path d="M127.435 30.0394H127.516C129.272 27.7099 131.432 26.7308 134.127 26.7308C137.146 26.7308 139.758 27.9559 141.266 30.7331C142.693 28.1183 145.509 26.7308 148.366 26.7308C153.67 26.7308 155.505 30.2018 155.505 35.023V48.3801H148.078V38.371C148.078 36.2086 148.162 32.6542 145.017 32.6542C141.59 32.6542 141.47 35.8815 141.47 38.371V48.3801H134.043V38.371C134.043 36.0439 134.043 32.4894 130.739 32.4894C127.435 32.4894 127.435 36.0439 127.435 38.371V48.3801H120.011V27.4269H127.435V30.0417V30.0394Z" fill="#fff"/>
<path d="M192.023 44.4196C192.023 47.0344 189.903 49.1991 187.252 49.1991C184.601 49.1991 182.479 47.0344 182.479 44.4196C182.479 41.8048 184.599 39.6401 187.252 39.6401C189.905 39.6401 192.023 41.763 192.023 44.4196Z" fill="#fff"/>
<path d="M27.8435 42.1853C25.4916 42.1853 23.5846 40.2758 23.5846 37.9209C23.5846 35.5659 25.4916 33.6565 27.8435 33.6565C30.1954 33.6565 32.1025 35.5659 32.1025 37.9209C32.1025 40.2758 30.1954 42.1853 27.8435 42.1853ZM27.8435 26.6519C21.6359 26.6519 16.5891 31.7075 16.5891 37.9209C16.5891 44.1342 21.6382 49.1898 27.8435 49.1898C34.0489 49.1898 39.0979 44.1342 39.0979 37.9209C39.0979 31.7075 34.0489 26.6519 27.8435 26.6519Z" fill="#fff"/>
<path d="M52.4124 42.1853C50.0605 42.1853 48.1534 40.2758 48.1534 37.9209C48.1534 35.5659 50.0605 33.6565 52.4124 33.6565C54.7643 33.6565 56.6713 35.5659 56.6713 37.9209C56.6713 40.2758 54.7643 42.1853 52.4124 42.1853ZM52.4124 26.6519C46.2047 26.6519 41.158 31.7075 41.158 37.9209C41.158 44.1342 46.207 49.1898 52.4124 49.1898C58.6177 49.1898 63.6668 44.1342 63.6668 37.9209C63.6668 31.7075 58.6177 26.6519 52.4124 26.6519Z" fill="#fff"/>
<path d="M169.299 42.1853C166.947 42.1853 165.04 40.2758 165.04 37.9209C165.04 35.5659 166.947 33.6565 169.299 33.6565C171.651 33.6565 173.558 35.5659 173.558 37.9209C173.558 40.2758 171.651 42.1853 169.299 42.1853ZM169.299 26.6519C163.091 26.6519 158.044 31.7075 158.044 37.9209C158.044 44.1342 163.091 49.1898 169.299 49.1898C175.506 49.1898 180.553 44.1342 180.553 37.9209C180.553 31.7075 175.506 26.6519 169.299 26.6519Z" fill="#fff"/>
<path d="M102.576 48.3801H95.1522V33.5544H92.7446V27.4246H95.1522V21.1323H102.576V27.4246H106.78V33.5544H102.576V48.3801Z" fill="#fff"/>
<path d="M116.572 27.4246H109.148V48.3801H116.572V27.4246Z" fill="#fff"/>
</svg>
